<svg xmlns="http://www.w3.org/2000/svg" viewBox="0 0 1600 900" role="img" aria-label="Scholarship support cover">
  <defs>
    <linearGradient id="scholarship-bg" x1="0%" y1="0%" x2="100%" y2="100%">
      <stop offset="0%" stop-color="#102033"/>
      <stop offset="100%" stop-color="#0f7b83"/>
    </linearGradient>
    <linearGradient id="scholarship-accent" x1="0%" y1="0%" x2="100%" y2="100%">
      <stop offset="0%" stop-color="#f7d9c6"/>
      <stop offset="100%" stop-color="#f2f6f7"/>
    </linearGradient>
  </defs>
  <rect width="1600" height="900" rx="44" fill="url(#scholarship-bg)"/>
  <rect x="1020" y="110" width="360" height="360" rx="36" fill="rgba(255,255,255,0.08)"/>
  <path d="M1108 256h185M1108 320h240M1108 384h160" stroke="rgba(255,255,255,0.36)" stroke-width="18" stroke-linecap="round"/>
  <circle cx="1210" cy="620" r="138" fill="rgba(255,255,255,0.08)"/>
  <path d="M1188 620h44c19 0 31-13 31-31s-12-31-31-31h-31v126" fill="none" stroke="url(#scholarship-accent)" stroke-width="20" stroke-linecap="round" stroke-linejoin="round"/>
  <path d="M1247 640c16 0 28 11 40 40" fill="none" stroke="#8ee0d7" stroke-width="20" stroke-linecap="round"/>
  <rect x="116" y="116" width="290" height="66" rx="33" fill="rgba(255,255,255,0.12)"/>
  <text x="154" y="160" fill="#ffffff" font-family="'PT Sans', sans-serif" font-size="30" letter-spacing="5">SCHOLARSHIP STORY</text>
  <text x="116" y="342" fill="#ffffff" font-family="'Palatino Linotype', Georgia, serif" font-size="84">Support That Changed</text>
  <text x="116" y="432" fill="#ffffff" font-family="'Palatino Linotype', Georgia, serif" font-size="84">My Direction</text>
  <text x="116" y="540" fill="#d9efec" font-family="'PT Sans', sans-serif" font-size="40">Kindness, trust, and opportunity made higher education possible.</text>
</svg>
