<svg xmlns="http://www.w3.org/2000/svg" viewBox="0 0 64 64" role="img" aria-label="AR portfolio icon">
  <defs>
    <linearGradient id="bg" x1="0%" y1="0%" x2="100%" y2="100%">
      <stop offset="0%" stop-color="#0f7b83"/>
      <stop offset="100%" stop-color="#102033"/>
    </linearGradient>
    <linearGradient id="accent" x1="0%" y1="0%" x2="100%" y2="100%">
      <stop offset="0%" stop-color="#f3dbc4"/>
      <stop offset="100%" stop-color="#8ee0d7"/>
    </linearGradient>
  </defs>
  <rect width="64" height="64" rx="16" fill="url(#bg)"/>
  <circle cx="49" cy="15" r="4" fill="url(#accent)"/>
  <circle cx="16" cy="48" r="3" fill="#ffffff" opacity="0.7"/>
  <path d="M14 46 24 18h5l10 28h-5l-2.1-6.5h-11L18.7 46Zm8.5-11h7.8l-3.9-11.9Z" fill="#ffffff"/>
  <path d="M40 18h8.5c6.1 0 10.5 3.4 10.5 9.2 0 4.5-2.7 7.3-6.5 8.5L60 46h-6.1l-6.4-9.4H45V46h-5Zm8.1 14c3.8 0 5.9-1.4 5.9-4.5 0-3-2.1-4.3-5.9-4.3H45V32Z" fill="url(#accent)"/>
</svg>
