<svg xmlns="http://www.w3.org/2000/svg" viewBox="0 0 1600 900" role="img" aria-label="Journey to admission cover">
  <defs>
    <linearGradient id="journey-bg" x1="0%" y1="0%" x2="100%" y2="100%">
      <stop offset="0%" stop-color="#0f7b83"/>
      <stop offset="100%" stop-color="#102033"/>
    </linearGradient>
    <linearGradient id="journey-accent" x1="0%" y1="0%" x2="100%" y2="100%">
      <stop offset="0%" stop-color="#f4d7c3"/>
      <stop offset="100%" stop-color="#8ee0d7"/>
    </linearGradient>
  </defs>
  <rect width="1600" height="900" rx="44" fill="url(#journey-bg)"/>
  <circle cx="1260" cy="180" r="148" fill="rgba(255,255,255,0.08)"/>
  <circle cx="1385" cy="300" r="32" fill="url(#journey-accent)"/>
  <path d="M160 660c140-170 268-266 384-288 119-23 213 2 339 86 121 79 223 111 312 95 112-21 205-91 285-205" fill="none" stroke="rgba(255,255,255,0.32)" stroke-width="18" stroke-linecap="round"/>
  <path d="m1377 356 49-18-15 51" fill="none" stroke="#f4d7c3" stroke-width="12" stroke-linecap="round" stroke-linejoin="round"/>
  <rect x="116" y="116" width="312" height="66" rx="33" fill="rgba(255,255,255,0.12)"/>
  <text x="156" y="160" fill="#ffffff" font-family="'PT Sans', sans-serif" font-size="30" letter-spacing="5">ADMISSION JOURNEY</text>
  <text x="116" y="360" fill="#ffffff" font-family="'Palatino Linotype', Georgia, serif" font-size="84">My Journey to Admission</text>
  <text x="116" y="450" fill="#d8efec" font-family="'PT Sans', sans-serif" font-size="42">UET Lahore, Faisalabad Campus</text>
  <text x="116" y="560" fill="#f4d7c3" font-family="'PT Sans', sans-serif" font-size="34">Preparation, pressure, persistence, and a new beginning.</text>
</svg>
